{"title":"Red 2 2013 CAM3 NEW SOURCE x264 AC3 MURDER","uid":8780995,"size":1385891091,"categoryP":"video","categoryS":"movies","magnet":"?xt=urn:btih:76d7ffb034cfefd7066e4b2a8716bc6e9e1350f1&amp;dn=Red+2+2013+CAM3+NEW+SOURCE+x264+AC3+MURDER&amp;tr=udp%3A%2F%2Ftracker.openbittorrent.com%3A80&amp;tr=udp%3A%2F%2Fopen.demonii.com%3A1337&amp;tr=udp%3A%2F%2Ftracker.coppersurfer.tk%3A6969&amp;tr=udp%3A%2F%2Fexodus.desync.com%3A6969","seeders":0,"leechers":0,"uploader":"TeX","files":11,"time":1375711726,"description":"[img]http://lookpic.com/O/i2/1387/QD0CEc.jpeg[/img]\n\nComplete name : Red 2 2013 CAM3 XviD AC3 MURDER.mkv\nFormat : Matroska\nFormat version : Version 2\nFile size : 1.29 GiB\nDuration : 1h 47mn\nOverall bit rate : 1 724 Kbps\nEncoded date : UTC 2013-08-05 00:19:04\nWriting application : mkvmerge v6.2.0 ('Promised Land') built on Apr 28 2013 12:22:01\nWriting library : libebml v1.3.0 + libmatroska v1.4.0\n\nVideo\nID : 1\nFormat : MPEG-4 Visual\nFormat profile : Advanced Simple@L5\nFormat settings, BVOP : Yes\nFormat settings, QPel : No\nFormat settings, GMC : No warppoints\nFormat settings, Matrix : Default (H.263)\nCodec ID : V_MS/VFW/FOURCC / XVID\nCodec ID/Hint : XviD\nDuration : 1h 47mn\nBit rate : 1 562 Kbps\nWidth : 704 pixels\nHeight : 352 pixels\nDisplay aspect ratio : 2.35:1\nFrame rate mode : Constant\nFrame rate : 29.970 fps\nColor space : YUV\nChroma subsampling : 4:2:0\nBit depth : 8 bits\nScan type : Progressive\nCompression mode : Lossy\nBits/(Pixel*Frame) : 0.210\nStream size : 1.17 GiB (91%)\nWriting library : XviD 64\nDefault : Yes\nForced : No\n\nAudio\nID : 2\nFormat : AC-3\nFormat/Info : Audio Coding 3\nMode extension : CM (complete main)\nFormat settings, Endianness : Big\nCodec ID : A_AC3\nDuration : 1h 47mn\nBit rate mode : Constant\nBit rate : 128 Kbps\nChannel(s) : 2 channels\nChannel positions : Front: L R\nSampling rate : 48.0 KHz\nBit depth : 16 bits\nCompression mode : Lossy\nStream size : 98.0 MiB (7%)\nDefault : Yes\nForced : No\n\n\n[img]http://lookpic.com/O/i2/1293/Oda8CePt.png[/img]\n[img]http://lookpic.com/O/i2/1075/784X06wv.png[/img]\n[img]http://lookpic.com/O/i2/1725/Kffh05nz.png[/img]","torrent":{"xt":"urn:btih:76d7ffb034cfefd7066e4b2a8716bc6e9e1350f1","amp;dn":"Red+2+2013+CAM3+NEW+SOURCE+x264+AC3+MURDER","amp;tr":["udp%3A%2F%2Ftracker.openbittorrent.com%3A80","udp%3A%2F%2Fopen.demonii.com%3A1337","udp%3A%2F%2Ftracker.coppersurfer.tk%3A6969","udp%3A%2F%2Fexodus.desync.com%3A6969"],"infoHash":"76d7ffb034cfefd7066e4b2a8716bc6e9e1350f1","infoHashBuffer":{"type":"Buffer","data":[118,215,255,176,52,207,239,215,6,110,75,42,135,22,188,110,158,19,80,241]},"announce":[],"urlList":[]}}